<svg xmlns="http://www.w3.org/2000/svg" xmlns:xlink="http://www.w3.org/1999/xlink" viewBox="0,0,256,256" width="120px" height="120px"><g fill="#404453" fill-rule="none" stroke="none" stroke-width="1" stroke-linecap="butt" stroke-linejoin="miter" stroke-miterlimit="10" stroke-dasharray="" stroke-dashoffset="0" font-family="none" font-weight="none" font-size="none" text-anchor="none" style="mix-blend-mode: normal"><g transform="scale(8.53333,8.53333)"><path d="M3.859,7.812l-1.077,-1.434c-0.122,-0.162 -0.055,-0.396 0.138,-0.462c1.335,-0.459 6.048,-1.916 12.08,-1.916c6.028,0 10.734,1.495 12.067,1.965c0.192,0.068 0.257,0.302 0.133,0.463l-1.059,1.386c-0.083,0.108 -0.22,0.15 -0.345,0.098c-0.931,-0.385 -4.991,-1.912 -10.796,-1.912c-5.796,0 -9.859,1.526 -10.794,1.912c-0.127,0.052 -0.265,0.009 -0.347,-0.1z" fill-rule="nonzero"></path><path d="M24.434,9.094c-2.986,-1.377 -5.878,-1.649 -7.917,-1.601c-0.152,0.004 -0.287,0.077 -0.379,0.198l-1.068,1.404l-1.069,-1.404c-0.092,-0.121 -0.227,-0.194 -0.379,-0.198c-2.039,-0.048 -4.931,0.225 -7.917,1.601c-0.167,0.077 -0.214,0.289 -0.128,0.451c0.331,0.625 1.127,1.487 1.908,1.824c0.168,0.073 0.375,-0.023 0.403,-0.204c0.247,-1.628 3.252,-1.665 3.252,-1.665l3.154,15.85c0.157,0.863 1.394,0.863 1.551,0l3.155,-15.85c0,0 3.004,0.037 3.252,1.666c0.028,0.181 0.237,0.283 0.403,0.204c0.633,-0.302 1.56,-1.118 1.908,-1.824c0.081,-0.166 0.038,-0.375 -0.129,-0.452z" fill-rule="evenodd"></path></g></g></svg>