<svg xmlns="http://www.w3.org/2000/svg" xmlns:xlink="http://www.w3.org/1999/xlink" viewBox="0,0,256,256" width="150px" height="150px"><g fill="#404453" fill-rule="nonzero" stroke="none" stroke-width="1" stroke-linecap="butt" stroke-linejoin="miter" stroke-miterlimit="10" stroke-dasharray="" stroke-dashoffset="0" font-family="none" font-weight="none" font-size="none" text-anchor="none" style="mix-blend-mode: normal"><g transform="scale(5.12,5.12)"><path d="M25,7c-4.38281,0.00391 -8.65625,0.16406 -13,0.75c-2.30859,0.3125 -4.78125,0.80078 -6.5,2.53125c-1.88281,1.89453 -2.28516,4.6875 -2.4375,7.25c-0.17578,2.97266 0.00391,5.94141 0.1875,8.90625c0.18359,2.91797 0.48047,5.84375 1.1875,8.6875c0.32813,1.31641 0.77344,2.64844 1.53125,3.78125c0.73047,1.08984 1.79297,1.86328 2.96875,2.40625c2.5,1.15234 5.39453,1.23828 8.09375,1.40625c2.64844,0.16406 5.30078,0.26563 7.96875,0.28125c1.33203,-0.00781 2.66797,-0.04687 4,-0.09375c1.33203,-0.04687 2.64453,-0.10547 3.96875,-0.1875c2.69922,-0.17187 5.59375,-0.25781 8.09375,-1.40625c0.58984,-0.26953 1.15625,-0.60156 1.65625,-1c0.5,-0.39844 0.94922,-0.86328 1.3125,-1.40625c0.75781,-1.13672 1.20313,-2.46484 1.53125,-3.78125c0.70703,-2.83984 1.00391,-5.76953 1.1875,-8.6875c0.13672,-2.22266 0.27344,-4.46094 0.25,-6.6875c-0.00781,-0.74219 -0.01953,-1.47656 -0.0625,-2.21875c-0.03906,-0.64062 -0.10156,-1.28516 -0.1875,-1.9375c-0.25781,-1.95703 -0.83594,-3.89062 -2.25,-5.3125c-1.71875,-1.73047 -4.19141,-2.21875 -6.5,-2.53125c-4.34375,-0.58203 -8.61719,-0.74609 -13,-0.75zM25,11c3.51953,0.00391 6.44922,0.14063 9.15625,0.375c-0.84766,3.21484 -1.75391,6.98828 -2.59375,10c-0.76953,2.75781 -1.66016,6.30469 -5,6.65625c-0.49609,0.05078 -1.02734,0.08594 -1.5625,0.09375c-0.53516,-0.00781 -1.0625,-0.04297 -1.5625,-0.09375c-3.33984,-0.35547 -4.23047,-3.89844 -5,-6.65625c-0.83984,-3.01172 -1.74609,-6.78516 -2.59375,-10c2.70703,-0.23437 5.63672,-0.37109 9.15625,-0.375zM11.65625,11.84375c0.04297,2.67578 0.19922,5.35938 0.3125,8.03125c0.37891,6.20703 0.79688,12.39063 1.5625,18.5625c-1.07812,-0.14453 -2.05469,-0.35937 -2.90625,-0.75c-0.61719,-0.28516 -1.0625,-0.62891 -1.3125,-1c-0.37891,-0.5625 -0.68359,-1.37891 -0.96875,-2.53125c-0.55078,-2.21484 -0.92187,-4.74219 -1.125,-7.96875c-0.17578,-2.86328 -0.32031,-5.68359 -0.15625,-8.4375c0.10547,-1.79297 0.33203,-3.73437 1.25,-4.65625c0.65234,-0.65625 1.83203,-1 3.34375,-1.25zM38.34375,11.84375c1.51563,0.25 2.69141,0.59375 3.34375,1.25c0.91797,0.92578 1.14453,2.86328 1.25,4.65625c0.16016,2.74609 0.01953,5.57031 -0.15625,8.4375c-0.19922,3.23047 -0.57422,5.75 -1.125,7.96875c-0.28516,1.15234 -0.59766,1.97266 -0.96875,2.53125c-0.25391,0.37891 -0.66797,0.6875 -1.28125,0.96875c-0.85156,0.39063 -1.86328,0.63672 -2.9375,0.78125c0.76563,-6.17187 1.18359,-12.35547 1.5625,-18.5625c0.11328,-2.67187 0.26953,-5.35547 0.3125,-8.03125zM25,32.6875c0.78516,0.00391 1.57031,0.08203 2.25,0.21875c2.04688,0.40234 2.07813,0.56641 2.875,3.1875c0,0 0.46484,1.47656 0.84375,2.71875c-2.05859,0.10156 -4.05859,0.17578 -5.9375,0.1875c-1.91016,-0.01172 -3.93359,-0.08594 -6,-0.1875c0.37891,-1.24219 0.84375,-2.71875 0.84375,-2.71875c0.79688,-2.62109 0.82813,-2.78516 2.875,-3.1875c0.67969,-0.13672 1.46484,-0.21484 2.25,-0.21875z"></path></g></g></svg>