<svg xmlns="http://www.w3.org/2000/svg" xmlns:xlink="http://www.w3.org/1999/xlink" viewBox="0,0,256,256" width="150px" height="150px"><g fill="#404453" fill-rule="nonzero" stroke="none" stroke-width="1" stroke-linecap="butt" stroke-linejoin="miter" stroke-miterlimit="10" stroke-dasharray="" stroke-dashoffset="0" font-family="none" font-weight="none" font-size="none" text-anchor="none" style="mix-blend-mode: normal"><g transform="scale(5.12,5.12)"><path d="M36.27734,23.63281c0.49219,0.03906 0.99219,0.05859 1.50781,0.05859c3.19141,0 7.52344,-0.73828 10.02734,-4.25391c0.32031,-0.44922 0.21875,-1.06641 -0.22656,-1.39062l-21.92578,-15.85937c-0.38672,-0.28125 -0.92187,-0.24609 -1.26953,0.08594c-3.66797,3.46094 -17.03125,10.64453 -21.67969,12.24609c-0.35156,0.11719 -0.60547,0.42188 -0.66406,0.78516c-0.05078,0.33203 0.07031,0.66016 0.3125,0.88281l28.05859,19.88281l-1.78516,1.1875l-15.67187,-11.10547c-0.47656,-0.05469 -0.96875,-0.08594 -1.47266,-0.08594c-3.32812,0 -6.41016,1.27344 -9.16016,3.77734c-0.22266,0.19922 -0.33984,0.48828 -0.32812,0.78516c0.01563,0.29688 0.16016,0.57422 0.39844,0.75391l21.89063,16.41406c0.17969,0.13672 0.39063,0.20313 0.60156,0.20313c0.23828,0 0.47656,-0.08984 0.66797,-0.25781c3.875,-3.49609 16.5625,-11.07422 20.89063,-12.47656c0.35547,-0.11719 0.61719,-0.41797 0.67969,-0.78516c0.05859,-0.37109 -0.08984,-0.74219 -0.38672,-0.96484l-0.33203,-0.25l-26.97266,-19.11328l1.78516,-1.1875z"></path></g></g></svg>