<svg xmlns="http://www.w3.org/2000/svg" xmlns:xlink="http://www.w3.org/1999/xlink" viewBox="0,0,256,256" width="150px" height="150px"><g fill="#404453" fill-rule="nonzero" stroke="none" stroke-width="1" stroke-linecap="butt" stroke-linejoin="miter" stroke-miterlimit="10" stroke-dasharray="" stroke-dashoffset="0" font-family="none" font-weight="none" font-size="none" text-anchor="none" style="mix-blend-mode: normal"><g transform="scale(5.12,5.12)"><path d="M8.826,16h0.174v10.761c0,1.404 -0.976,2.237 -2.5,2.237c-1.534,0 -2.465,-1.096 -2.465,-2.276l-0.035,-1.722h-4v1.761c0,2.019 0.718,6.239 6.5,6.239c5.783,0 6.5,-4.482 6.5,-6.321v-10.679zM19.5,30c-1.263,0 -1.5,-1 -1.5,-2h7c0,-5 -2,-7 -5.5,-7c-3.5,0 -5.5,2 -5.5,5.813c0,4.187 1.817,6.187 5.522,6.187c3.247,0.034 5.478,-2.383 5.478,-4h-4c0,0 -0.242,1 -1.5,1zM19.5,24c1.029,0 1.5,1 1.5,2h-3c0,-1 0.482,-2 1.5,-2zM31.5,30c-1.263,0 -1.5,-1 -1.5,-2h7c0,-5 -2,-7 -5.5,-7c-3.5,0 -5.5,2 -5.5,5.813c0,4.187 1.817,6.187 5.522,6.187c3.247,0.034 5.478,-2.383 5.478,-4h-4c0,0 -0.242,1 -1.5,1zM31.5,24c1.029,0 1.5,1 1.5,2h-3c0,-1 0.482,-2 1.5,-2zM45.194,20.594c-1.884,0 -2.591,0.875 -2.843,1.181c-0.291,0.358 -0.22,0.557 -0.351,0.843v-1.618h-4l0.072,15v0h3.928v-4.685c0.153,0.206 0.115,0.31 0.394,0.531c0.436,0.336 1.179,0.916 2.843,0.916c3.018,0 4.762,-2.625 4.762,-6.213c0.001,-4.643 -2.927,-5.955 -4.805,-5.955zM44.058,30.086c-1.836,0 -2.101,-1.175 -2.058,-3.407c0.048,-2.234 0.706,-3.148 1.882,-3.148c1.923,0 2.118,1.484 2.118,3.018c0,1.531 -0.109,3.537 -1.942,3.537z"></path></g></g></svg>