<svg xmlns="http://www.w3.org/2000/svg" xmlns:xlink="http://www.w3.org/1999/xlink" viewBox="0,0,256,256" width="150px" height="150px"><g fill="#9a9a9a" fill-rule="nonzero" stroke="none" stroke-width="1" stroke-linecap="butt" stroke-linejoin="miter" stroke-miterlimit="10" stroke-dasharray="" stroke-dashoffset="0" font-family="none" font-weight="none" font-size="none" text-anchor="none" style="mix-blend-mode: normal"><g transform="scale(5.12,5.12)"><path d="M22.012,24.883c-0.006,0.204 -0.012,0.409 -0.012,0.617c0,4.142 1.343,7.5 3,7.5c1.657,0 3,-3.358 3,-7.5c0,-0.208 -0.006,-0.413 -0.013,-0.617c-0.968,0.074 -1.965,0.117 -2.987,0.117c-1.022,0 -2.019,-0.043 -2.988,-0.117zM23.117,14.061c-2.218,0.141 -4.307,0.536 -6.211,1.124c-2.395,0.823 -3.906,2.001 -3.906,3.315c0,1.839 2.948,3.419 7.165,4.117c0.557,-4.953 2.507,-8.617 4.835,-8.617c-0.602,0 -1.196,0.02 -1.782,0.055c-0.034,0.002 -0.067,0.004 -0.101,0.006zM26.782,14.055c-0.586,-0.035 -1.18,-0.055 -1.782,-0.055c2.328,0 4.278,3.664 4.835,8.617c4.217,-0.698 7.165,-2.278 7.165,-4.117c0,-1.314 -1.511,-2.492 -3.906,-3.315c-1.904,-0.588 -3.994,-0.983 -6.211,-1.124c-0.034,-0.002 -0.067,-0.004 -0.101,-0.006zM25,18c-1.286,0 -2.38,2.028 -2.807,4.871c0.902,0.081 1.839,0.129 2.807,0.129c0.968,0 1.905,-0.048 2.807,-0.129c-0.427,-2.843 -1.521,-4.871 -2.807,-4.871zM20,25.5c0,-0.279 0.01,-0.552 0.018,-0.826c-5.515,-0.734 -9.699,-2.651 -10.749,-5.014c-1.441,1.582 -2.269,3.401 -2.269,5.34c0,5.638 6.947,10.28 15.893,10.918c-1.707,-1.83 -2.893,-5.801 -2.893,-10.418zM25,8c-13.785,0 -25,7.626 -25,17c0,9.374 11.215,17 25,17c13.785,0 25,-7.626 25,-17c0,-9.374 -11.215,-17 -25,-17zM25,38c-11.597,0 -21,-5.821 -21,-13c0,-7.179 9.403,-13 21,-13c11.597,0 21,5.821 21,13c0,7.179 -9.403,13 -21,13zM40.731,19.66c-1.05,2.363 -5.234,4.28 -10.749,5.014c0.009,0.274 0.018,0.547 0.018,0.826c0,4.617 -1.186,8.588 -2.893,10.418c8.946,-0.638 15.893,-5.28 15.893,-10.918c0,-1.939 -0.828,-3.758 -2.269,-5.34z"></path></g></g></svg>